# xmcd
#
# Track frame offsets:
#	150
#	11559
#	24577
#	39368
#	53480
#	65289
#	77651
#	93527
#	105091
#	118482
#	133766
#	149402
#
# Disc length: 2185 seconds
#
# Revision: 1
# Processed by: cddbd v1.5.1PL0 Copyright (c) Steve Scherf et al.
# Submitted via: audiograbber 1.81.02
#
DISCID=9808870c
DTITLE=Norteños de Ojinaga - Amor con Sax
DYEAR=2004
DGENRE=Grupero
TTITLE0=Una mujer especial
TTITLE1=Nada mas te digo adios
TTITLE2=Una traicion
TTITLE3=Noche callada
TTITLE4=Cruel dolor
TTITLE5=Lo suave de tu piel
TTITLE6=Brindo por tu cumpleaños
TTITLE7=Mi tristeza
TTITLE8=Volver a nacer
TTITLE9=Cautivo de amor
TTITLE10=Ezequiel rodriguez
TTITLE11=Dos amores
EXTD=
EXTT0=
EXTT1=
EXTT2=
EXTT3=
EXTT4=
EXTT5=
EXTT6=
EXTT7=
EXTT8=
EXTT9=
EXTT10=
EXTT11=
PLAYORDER=
